<?xml version="1.0" encoding="utf-8" standalone="no"?>
<!DOCTYPE svg PUBLIC "-//W3C//DTD SVG 1.1//EN"
  "http://www.w3.org/Graphics/SVG/1.1/DTD/svg11.dtd">
<svg xmlns:xlink="http://www.w3.org/1999/xlink" width="460.8pt" height="345.6pt" viewBox="0 0 460.8 345.6" xmlns="http://www.w3.org/2000/svg" version="1.1">
 <metadata>
  <rdf:RDF xmlns:dc="http://purl.org/dc/elements/1.1/" xmlns:cc="http://creativecommons.org/ns#" xmlns:rdf="http://www.w3.org/1999/02/22-rdf-syntax-ns#">
   <cc:Work>
    <dc:type rdf:resource="http://purl.org/dc/dcmitype/StillImage"/>
    <dc:date>2023-03-03T16:57:23.083761</dc:date>
    <dc:format>image/svg+xml</dc:format>
    <dc:creator>
     <cc:Agent>
      <dc:title>Matplotlib v3.6.2, https://matplotlib.org/</dc:title>
     </cc:Agent>
    </dc:creator>
   </cc:Work>
  </rdf:RDF>
 </metadata>
 <defs>
  <style type="text/css">*{stroke-linejoin: round; stroke-linecap: butt}</style>
 </defs>
 <g id="figure_1">
  <g id="patch_1">
   <path d="M 0 345.6 
L 460.8 345.6 
L 460.8 0 
L 0 0 
z
" style="fill: #ffffff"/>
  </g>
  <g id="axes_1">
   <g id="patch_2">
    <path d="M 65.684 303.64 
L 450 303.64 
L 450 26.88 
L 65.684 26.88 
z
" style="fill: #ffffff"/>
   </g>
   <g id="matplotlib.axis_1">
    <g id="xtick_1">
     <g id="line2d_1">
      <defs>
       <path id="m2cda094f27" d="M 0 0 
L 0 3.5 
" style="stroke: #000000; stroke-width: 0.8"/>
      </defs>
      <g>
       <use xlink:href="#m2cda094f27" x="83.152909" y="303.64" style="stroke: #000000; stroke-width: 0.8"/>
      </g>
     </g>
     <g id="text_1">
      <!-- 0 -->
      <g transform="translate(79.971659 318.238437) scale(0.1 -0.1)">
       <defs>
        <path id="DejaVuSans-30" d="M 2034 4250 
Q 1547 4250 1301 3770 
Q 1056 3291 1056 2328 
Q 1056 1369 1301 889 
Q 1547 409 2034 409 
Q 2525 409 2770 889 
Q 3016 1369 3016 2328 
Q 3016 3291 2770 3770 
Q 2525 4250 2034 4250 
z
M 2034 4750 
Q 2819 4750 3233 4129 
Q 3647 3509 3647 2328 
Q 3647 1150 3233 529 
Q 2819 -91 2034 -91 
Q 1250 -91 836 529 
Q 422 1150 422 2328 
Q 422 3509 836 4129 
Q 1250 4750 2034 4750 
z
" transform="scale(0.015625)"/>
       </defs>
       <use xlink:href="#DejaVuSans-30"/>
      </g>
     </g>
    </g>
    <g id="xtick_2">
     <g id="line2d_2">
      <g>
       <use xlink:href="#m2cda094f27" x="127.944984" y="303.64" style="stroke: #000000; stroke-width: 0.8"/>
      </g>
     </g>
     <g id="text_2">
      <!-- 5 -->
      <g transform="translate(124.763734 318.238437) scale(0.1 -0.1)">
       <defs>
        <path id="DejaVuSans-35" d="M 691 4666 
L 3169 4666 
L 3169 4134 
L 1269 4134 
L 1269 2991 
Q 1406 3038 1543 3061 
Q 1681 3084 1819 3084 
Q 2600 3084 3056 2656 
Q 3513 2228 3513 1497 
Q 3513 744 3044 326 
Q 2575 -91 1722 -91 
Q 1428 -91 1123 -41 
Q 819 9 494 109 
L 494 744 
Q 775 591 1075 516 
Q 1375 441 1709 441 
Q 2250 441 2565 725 
Q 2881 1009 2881 1497 
Q 2881 1984 2565 2268 
Q 2250 2553 1709 2553 
Q 1456 2553 1204 2497 
Q 953 2441 691 2322 
L 691 4666 
z
" transform="scale(0.015625)"/>
       </defs>
       <use xlink:href="#DejaVuSans-35"/>
      </g>
     </g>
    </g>
    <g id="xtick_3">
     <g id="line2d_3">
      <g>
       <use xlink:href="#m2cda094f27" x="172.737058" y="303.64" style="stroke: #000000; stroke-width: 0.8"/>
      </g>
     </g>
     <g id="text_3">
      <!-- 10 -->
      <g transform="translate(166.374558 318.238437) scale(0.1 -0.1)">
       <defs>
        <path id="DejaVuSans-31" d="M 794 531 
L 1825 531 
L 1825 4091 
L 703 3866 
L 703 4441 
L 1819 4666 
L 2450 4666 
L 2450 531 
L 3481 531 
L 3481 0 
L 794 0 
L 794 531 
z
" transform="scale(0.015625)"/>
       </defs>
       <use xlink:href="#DejaVuSans-31"/>
       <use xlink:href="#DejaVuSans-30" x="63.623047"/>
      </g>
     </g>
    </g>
    <g id="xtick_4">
     <g id="line2d_4">
      <g>
       <use xlink:href="#m2cda094f27" x="217.529133" y="303.64" style="stroke: #000000; stroke-width: 0.8"/>
      </g>
     </g>
     <g id="text_4">
      <!-- 15 -->
      <g transform="translate(211.166633 318.238437) scale(0.1 -0.1)">
       <use xlink:href="#DejaVuSans-31"/>
       <use xlink:href="#DejaVuSans-35" x="63.623047"/>
      </g>
     </g>
    </g>
    <g id="xtick_5">
     <g id="line2d_5">
      <g>
       <use xlink:href="#m2cda094f27" x="262.321207" y="303.64" style="stroke: #000000; stroke-width: 0.8"/>
      </g>
     </g>
     <g id="text_5">
      <!-- 20 -->
      <g transform="translate(255.958707 318.238437) scale(0.1 -0.1)">
       <defs>
        <path id="DejaVuSans-32" d="M 1228 531 
L 3431 531 
L 3431 0 
L 469 0 
L 469 531 
Q 828 903 1448 1529 
Q 2069 2156 2228 2338 
Q 2531 2678 2651 2914 
Q 2772 3150 2772 3378 
Q 2772 3750 2511 3984 
Q 2250 4219 1831 4219 
Q 1534 4219 1204 4116 
Q 875 4013 500 3803 
L 500 4441 
Q 881 4594 1212 4672 
Q 1544 4750 1819 4750 
Q 2544 4750 2975 4387 
Q 3406 4025 3406 3419 
Q 3406 3131 3298 2873 
Q 3191 2616 2906 2266 
Q 2828 2175 2409 1742 
Q 1991 1309 1228 531 
z
" transform="scale(0.015625)"/>
       </defs>
       <use xlink:href="#DejaVuSans-32"/>
       <use xlink:href="#DejaVuSans-30" x="63.623047"/>
      </g>
     </g>
    </g>
    <g id="xtick_6">
     <g id="line2d_6">
      <g>
       <use xlink:href="#m2cda094f27" x="307.113282" y="303.64" style="stroke: #000000; stroke-width: 0.8"/>
      </g>
     </g>
     <g id="text_6">
      <!-- 25 -->
      <g transform="translate(300.750782 318.238437) scale(0.1 -0.1)">
       <use xlink:href="#DejaVuSans-32"/>
       <use xlink:href="#DejaVuSans-35" x="63.623047"/>
      </g>
     </g>
    </g>
    <g id="xtick_7">
     <g id="line2d_7">
      <g>
       <use xlink:href="#m2cda094f27" x="351.905357" y="303.64" style="stroke: #000000; stroke-width: 0.8"/>
      </g>
     </g>
     <g id="text_7">
      <!-- 30 -->
      <g transform="translate(345.542857 318.238437) scale(0.1 -0.1)">
       <defs>
        <path id="DejaVuSans-33" d="M 2597 2516 
Q 3050 2419 3304 2112 
Q 3559 1806 3559 1356 
Q 3559 666 3084 287 
Q 2609 -91 1734 -91 
Q 1441 -91 1130 -33 
Q 819 25 488 141 
L 488 750 
Q 750 597 1062 519 
Q 1375 441 1716 441 
Q 2309 441 2620 675 
Q 2931 909 2931 1356 
Q 2931 1769 2642 2001 
Q 2353 2234 1838 2234 
L 1294 2234 
L 1294 2753 
L 1863 2753 
Q 2328 2753 2575 2939 
Q 2822 3125 2822 3475 
Q 2822 3834 2567 4026 
Q 2313 4219 1838 4219 
Q 1578 4219 1281 4162 
Q 984 4106 628 3988 
L 628 4550 
Q 988 4650 1302 4700 
Q 1616 4750 1894 4750 
Q 2613 4750 3031 4423 
Q 3450 4097 3450 3541 
Q 3450 3153 3228 2886 
Q 3006 2619 2597 2516 
z
" transform="scale(0.015625)"/>
       </defs>
       <use xlink:href="#DejaVuSans-33"/>
       <use xlink:href="#DejaVuSans-30" x="63.623047"/>
      </g>
     </g>
    </g>
    <g id="xtick_8">
     <g id="line2d_8">
      <g>
       <use xlink:href="#m2cda094f27" x="396.697431" y="303.64" style="stroke: #000000; stroke-width: 0.8"/>
      </g>
     </g>
     <g id="text_8">
      <!-- 35 -->
      <g transform="translate(390.334931 318.238437) scale(0.1 -0.1)">
       <use xlink:href="#DejaVuSans-33"/>
       <use xlink:href="#DejaVuSans-35" x="63.623047"/>
      </g>
     </g>
    </g>
    <g id="xtick_9">
     <g id="line2d_9">
      <g>
       <use xlink:href="#m2cda094f27" x="441.489506" y="303.64" style="stroke: #000000; stroke-width: 0.8"/>
      </g>
     </g>
     <g id="text_9">
      <!-- 40 -->
      <g transform="translate(435.127006 318.238437) scale(0.1 -0.1)">
       <defs>
        <path id="DejaVuSans-34" d="M 2419 4116 
L 825 1625 
L 2419 1625 
L 2419 4116 
z
M 2253 4666 
L 3047 4666 
L 3047 1625 
L 3713 1625 
L 3713 1100 
L 3047 1100 
L 3047 0 
L 2419 0 
L 2419 1100 
L 313 1100 
L 313 1709 
L 2253 4666 
z
" transform="scale(0.015625)"/>
       </defs>
       <use xlink:href="#DejaVuSans-34"/>
       <use xlink:href="#DejaVuSans-30" x="63.623047"/>
      </g>
     </g>
    </g>
    <g id="text_10">
     <!-- Number of iterations -->
     <g transform="translate(206.031062 331.916562) scale(0.1 -0.1)">
      <defs>
       <path id="DejaVuSans-4e" d="M 628 4666 
L 1478 4666 
L 3547 763 
L 3547 4666 
L 4159 4666 
L 4159 0 
L 3309 0 
L 1241 3903 
L 1241 0 
L 628 0 
L 628 4666 
z
" transform="scale(0.015625)"/>
       <path id="DejaVuSans-75" d="M 544 1381 
L 544 3500 
L 1119 3500 
L 1119 1403 
Q 1119 906 1312 657 
Q 1506 409 1894 409 
Q 2359 409 2629 706 
Q 2900 1003 2900 1516 
L 2900 3500 
L 3475 3500 
L 3475 0 
L 2900 0 
L 2900 538 
Q 2691 219 2414 64 
Q 2138 -91 1772 -91 
Q 1169 -91 856 284 
Q 544 659 544 1381 
z
M 1991 3584 
L 1991 3584 
z
" transform="scale(0.015625)"/>
       <path id="DejaVuSans-6d" d="M 3328 2828 
Q 3544 3216 3844 3400 
Q 4144 3584 4550 3584 
Q 5097 3584 5394 3201 
Q 5691 2819 5691 2113 
L 5691 0 
L 5113 0 
L 5113 2094 
Q 5113 2597 4934 2840 
Q 4756 3084 4391 3084 
Q 3944 3084 3684 2787 
Q 3425 2491 3425 1978 
L 3425 0 
L 2847 0 
L 2847 2094 
Q 2847 2600 2669 2842 
Q 2491 3084 2119 3084 
Q 1678 3084 1418 2786 
Q 1159 2488 1159 1978 
L 1159 0 
L 581 0 
L 581 3500 
L 1159 3500 
L 1159 2956 
Q 1356 3278 1631 3431 
Q 1906 3584 2284 3584 
Q 2666 3584 2933 3390 
Q 3200 3197 3328 2828 
z
" transform="scale(0.015625)"/>
       <path id="DejaVuSans-62" d="M 3116 1747 
Q 3116 2381 2855 2742 
Q 2594 3103 2138 3103 
Q 1681 3103 1420 2742 
Q 1159 2381 1159 1747 
Q 1159 1113 1420 752 
Q 1681 391 2138 391 
Q 2594 391 2855 752 
Q 3116 1113 3116 1747 
z
M 1159 2969 
Q 1341 3281 1617 3432 
Q 1894 3584 2278 3584 
Q 2916 3584 3314 3078 
Q 3713 2572 3713 1747 
Q 3713 922 3314 415 
Q 2916 -91 2278 -91 
Q 1894 -91 1617 61 
Q 1341 213 1159 525 
L 1159 0 
L 581 0 
L 581 4863 
L 1159 4863 
L 1159 2969 
z
" transform="scale(0.015625)"/>
       <path id="DejaVuSans-65" d="M 3597 1894 
L 3597 1613 
L 953 1613 
Q 991 1019 1311 708 
Q 1631 397 2203 397 
Q 2534 397 2845 478 
Q 3156 559 3463 722 
L 3463 178 
Q 3153 47 2828 -22 
Q 2503 -91 2169 -91 
Q 1331 -91 842 396 
Q 353 884 353 1716 
Q 353 2575 817 3079 
Q 1281 3584 2069 3584 
Q 2775 3584 3186 3129 
Q 3597 2675 3597 1894 
z
M 3022 2063 
Q 3016 2534 2758 2815 
Q 2500 3097 2075 3097 
Q 1594 3097 1305 2825 
Q 1016 2553 972 2059 
L 3022 2063 
z
" transform="scale(0.015625)"/>
       <path id="DejaVuSans-72" d="M 2631 2963 
Q 2534 3019 2420 3045 
Q 2306 3072 2169 3072 
Q 1681 3072 1420 2755 
Q 1159 2438 1159 1844 
L 1159 0 
L 581 0 
L 581 3500 
L 1159 3500 
L 1159 2956 
Q 1341 3275 1631 3429 
Q 1922 3584 2338 3584 
Q 2397 3584 2469 3576 
Q 2541 3569 2628 3553 
L 2631 2963 
z
" transform="scale(0.015625)"/>
       <path id="DejaVuSans-20" transform="scale(0.015625)"/>
       <path id="DejaVuSans-6f" d="M 1959 3097 
Q 1497 3097 1228 2736 
Q 959 2375 959 1747 
Q 959 1119 1226 758 
Q 1494 397 1959 397 
Q 2419 397 2687 759 
Q 2956 1122 2956 1747 
Q 2956 2369 2687 2733 
Q 2419 3097 1959 3097 
z
M 1959 3584 
Q 2709 3584 3137 3096 
Q 3566 2609 3566 1747 
Q 3566 888 3137 398 
Q 2709 -91 1959 -91 
Q 1206 -91 779 398 
Q 353 888 353 1747 
Q 353 2609 779 3096 
Q 1206 3584 1959 3584 
z
" transform="scale(0.015625)"/>
       <path id="DejaVuSans-66" d="M 2375 4863 
L 2375 4384 
L 1825 4384 
Q 1516 4384 1395 4259 
Q 1275 4134 1275 3809 
L 1275 3500 
L 2222 3500 
L 2222 3053 
L 1275 3053 
L 1275 0 
L 697 0 
L 697 3053 
L 147 3053 
L 147 3500 
L 697 3500 
L 697 3744 
Q 697 4328 969 4595 
Q 1241 4863 1831 4863 
L 2375 4863 
z
" transform="scale(0.015625)"/>
       <path id="DejaVuSans-69" d="M 603 3500 
L 1178 3500 
L 1178 0 
L 603 0 
L 603 3500 
z
M 603 4863 
L 1178 4863 
L 1178 4134 
L 603 4134 
L 603 4863 
z
" transform="scale(0.015625)"/>
       <path id="DejaVuSans-74" d="M 1172 4494 
L 1172 3500 
L 2356 3500 
L 2356 3053 
L 1172 3053 
L 1172 1153 
Q 1172 725 1289 603 
Q 1406 481 1766 481 
L 2356 481 
L 2356 0 
L 1766 0 
Q 1100 0 847 248 
Q 594 497 594 1153 
L 594 3053 
L 172 3053 
L 172 3500 
L 594 3500 
L 594 4494 
L 1172 4494 
z
" transform="scale(0.015625)"/>
       <path id="DejaVuSans-61" d="M 2194 1759 
Q 1497 1759 1228 1600 
Q 959 1441 959 1056 
Q 959 750 1161 570 
Q 1363 391 1709 391 
Q 2188 391 2477 730 
Q 2766 1069 2766 1631 
L 2766 1759 
L 2194 1759 
z
M 3341 1997 
L 3341 0 
L 2766 0 
L 2766 531 
Q 2569 213 2275 61 
Q 1981 -91 1556 -91 
Q 1019 -91 701 211 
Q 384 513 384 1019 
Q 384 1609 779 1909 
Q 1175 2209 1959 2209 
L 2766 2209 
L 2766 2266 
Q 2766 2663 2505 2880 
Q 2244 3097 1772 3097 
Q 1472 3097 1187 3025 
Q 903 2953 641 2809 
L 641 3341 
Q 956 3463 1253 3523 
Q 1550 3584 1831 3584 
Q 2591 3584 2966 3190 
Q 3341 2797 3341 1997 
z
" transform="scale(0.015625)"/>
       <path id="DejaVuSans-6e" d="M 3513 2113 
L 3513 0 
L 2938 0 
L 2938 2094 
Q 2938 2591 2744 2837 
Q 2550 3084 2163 3084 
Q 1697 3084 1428 2787 
Q 1159 2491 1159 1978 
L 1159 0 
L 581 0 
L 581 3500 
L 1159 3500 
L 1159 2956 
Q 1366 3272 1645 3428 
Q 1925 3584 2291 3584 
Q 2894 3584 3203 3211 
Q 3513 2838 3513 2113 
z
" transform="scale(0.015625)"/>
       <path id="DejaVuSans-73" d="M 2834 3397 
L 2834 2853 
Q 2591 2978 2328 3040 
Q 2066 3103 1784 3103 
Q 1356 3103 1142 2972 
Q 928 2841 928 2578 
Q 928 2378 1081 2264 
Q 1234 2150 1697 2047 
L 1894 2003 
Q 2506 1872 2764 1633 
Q 3022 1394 3022 966 
Q 3022 478 2636 193 
Q 2250 -91 1575 -91 
Q 1294 -91 989 -36 
Q 684 19 347 128 
L 347 722 
Q 666 556 975 473 
Q 1284 391 1588 391 
Q 1994 391 2212 530 
Q 2431 669 2431 922 
Q 2431 1156 2273 1281 
Q 2116 1406 1581 1522 
L 1381 1569 
Q 847 1681 609 1914 
Q 372 2147 372 2553 
Q 372 3047 722 3315 
Q 1072 3584 1716 3584 
Q 2034 3584 2315 3537 
Q 2597 3491 2834 3397 
z
" transform="scale(0.015625)"/>
      </defs>
      <use xlink:href="#DejaVuSans-4e"/>
      <use xlink:href="#DejaVuSans-75" x="74.804688"/>
      <use xlink:href="#DejaVuSans-6d" x="138.183594"/>
      <use xlink:href="#DejaVuSans-62" x="235.595703"/>
      <use xlink:href="#DejaVuSans-65" x="299.072266"/>
      <use xlink:href="#DejaVuSans-72" x="360.595703"/>
      <use xlink:href="#DejaVuSans-20" x="401.708984"/>
      <use xlink:href="#DejaVuSans-6f" x="433.496094"/>
      <use xlink:href="#DejaVuSans-66" x="494.677734"/>
      <use xlink:href="#DejaVuSans-20" x="529.882812"/>
      <use xlink:href="#DejaVuSans-69" x="561.669922"/>
      <use xlink:href="#DejaVuSans-74" x="589.453125"/>
      <use xlink:href="#DejaVuSans-65" x="628.662109"/>
      <use xlink:href="#DejaVuSans-72" x="690.185547"/>
      <use xlink:href="#DejaVuSans-61" x="731.298828"/>
      <use xlink:href="#DejaVuSans-74" x="792.578125"/>
      <use xlink:href="#DejaVuSans-69" x="831.787109"/>
      <use xlink:href="#DejaVuSans-6f" x="859.570312"/>
      <use xlink:href="#DejaVuSans-6e" x="920.751953"/>
      <use xlink:href="#DejaVuSans-73" x="984.130859"/>
     </g>
    </g>
   </g>
   <g id="matplotlib.axis_2">
    <g id="ytick_1">
     <g id="line2d_10">
      <defs>
       <path id="m19a650fdd0" d="M 0 0 
L -3.5 0 
" style="stroke: #000000; stroke-width: 0.8"/>
      </defs>
      <g>
       <use xlink:href="#m19a650fdd0" x="65.684" y="287.119354" style="stroke: #000000; stroke-width: 0.8"/>
      </g>
     </g>
     <g id="text_11">
      <!-- −3.5 -->
      <g transform="translate(34.401188 290.918573) scale(0.1 -0.1)">
       <defs>
        <path id="DejaVuSans-2212" d="M 678 2272 
L 4684 2272 
L 4684 1741 
L 678 1741 
L 678 2272 
z
" transform="scale(0.015625)"/>
        <path id="DejaVuSans-2e" d="M 684 794 
L 1344 794 
L 1344 0 
L 684 0 
L 684 794 
z
" transform="scale(0.015625)"/>
       </defs>
       <use xlink:href="#DejaVuSans-2212"/>
       <use xlink:href="#DejaVuSans-33" x="83.789062"/>
       <use xlink:href="#DejaVuSans-2e" x="147.412109"/>
       <use xlink:href="#DejaVuSans-35" x="179.199219"/>
      </g>
     </g>
    </g>
    <g id="ytick_2">
     <g id="line2d_11">
      <g>
       <use xlink:href="#m19a650fdd0" x="65.684" y="251.739446" style="stroke: #000000; stroke-width: 0.8"/>
      </g>
     </g>
     <g id="text_12">
      <!-- −3.0 -->
      <g transform="translate(34.401188 255.538665) scale(0.1 -0.1)">
       <use xlink:href="#DejaVuSans-2212"/>
       <use xlink:href="#DejaVuSans-33" x="83.789062"/>
       <use xlink:href="#DejaVuSans-2e" x="147.412109"/>
       <use xlink:href="#DejaVuSans-30" x="179.199219"/>
      </g>
     </g>
    </g>
    <g id="ytick_3">
     <g id="line2d_12">
      <g>
       <use xlink:href="#m19a650fdd0" x="65.684" y="216.359539" style="stroke: #000000; stroke-width: 0.8"/>
      </g>
     </g>
     <g id="text_13">
      <!-- −2.5 -->
      <g transform="translate(34.401188 220.158757) scale(0.1 -0.1)">
       <use xlink:href="#DejaVuSans-2212"/>
       <use xlink:href="#DejaVuSans-32" x="83.789062"/>
       <use xlink:href="#DejaVuSans-2e" x="147.412109"/>
       <use xlink:href="#DejaVuSans-35" x="179.199219"/>
      </g>
     </g>
    </g>
    <g id="ytick_4">
     <g id="line2d_13">
      <g>
       <use xlink:href="#m19a650fdd0" x="65.684" y="180.979631" style="stroke: #000000; stroke-width: 0.8"/>
      </g>
     </g>
     <g id="text_14">
      <!-- −2.0 -->
      <g transform="translate(34.401188 184.77885) scale(0.1 -0.1)">
       <use xlink:href="#DejaVuSans-2212"/>
       <use xlink:href="#DejaVuSans-32" x="83.789062"/>
       <use xlink:href="#DejaVuSans-2e" x="147.412109"/>
       <use xlink:href="#DejaVuSans-30" x="179.199219"/>
      </g>
     </g>
    </g>
    <g id="ytick_5">
     <g id="line2d_14">
      <g>
       <use xlink:href="#m19a650fdd0" x="65.684" y="145.599723" style="stroke: #000000; stroke-width: 0.8"/>
      </g>
     </g>
     <g id="text_15">
      <!-- −1.5 -->
      <g transform="translate(34.401188 149.398942) scale(0.1 -0.1)">
       <use xlink:href="#DejaVuSans-2212"/>
       <use xlink:href="#DejaVuSans-31" x="83.789062"/>
       <use xlink:href="#DejaVuSans-2e" x="147.412109"/>
       <use xlink:href="#DejaVuSans-35" x="179.199219"/>
      </g>
     </g>
    </g>
    <g id="ytick_6">
     <g id="line2d_15">
      <g>
       <use xlink:href="#m19a650fdd0" x="65.684" y="110.219815" style="stroke: #000000; stroke-width: 0.8"/>
      </g>
     </g>
     <g id="text_16">
      <!-- −1.0 -->
      <g transform="translate(34.401188 114.019034) scale(0.1 -0.1)">
       <use xlink:href="#DejaVuSans-2212"/>
       <use xlink:href="#DejaVuSans-31" x="83.789062"/>
       <use xlink:href="#DejaVuSans-2e" x="147.412109"/>
       <use xlink:href="#DejaVuSans-30" x="179.199219"/>
      </g>
     </g>
    </g>
    <g id="ytick_7">
     <g id="line2d_16">
      <g>
       <use xlink:href="#m19a650fdd0" x="65.684" y="74.839908" style="stroke: #000000; stroke-width: 0.8"/>
      </g>
     </g>
     <g id="text_17">
      <!-- −0.5 -->
      <g transform="translate(34.401188 78.639126) scale(0.1 -0.1)">
       <use xlink:href="#DejaVuSans-2212"/>
       <use xlink:href="#DejaVuSans-30" x="83.789062"/>
       <use xlink:href="#DejaVuSans-2e" x="147.412109"/>
       <use xlink:href="#DejaVuSans-35" x="179.199219"/>
      </g>
     </g>
    </g>
    <g id="ytick_8">
     <g id="line2d_17">
      <g>
       <use xlink:href="#m19a650fdd0" x="65.684" y="39.46" style="stroke: #000000; stroke-width: 0.8"/>
      </g>
     </g>
     <g id="text_18">
      <!-- 0.0 -->
      <g transform="translate(42.780875 43.259219) scale(0.1 -0.1)">
       <use xlink:href="#DejaVuSans-30"/>
       <use xlink:href="#DejaVuSans-2e" x="63.623047"/>
       <use xlink:href="#DejaVuSans-30" x="95.410156"/>
      </g>
     </g>
    </g>
    <g id="text_19">
     <!-- $\int_{\partial \Omega} (2\lambda u_n - \alpha p_n)\, v_n \;\mathrm{d}s$ -->
     <g transform="translate(25.101188 217.16) rotate(-90) scale(0.1 -0.1)">
      <defs>
       <path id="DejaVuSansDisplay-222b" d="M 2134 5525 
Q 2172 6263 2528 6556 
Q 2884 6850 3218 6850 
Q 3553 6850 3833 6575 
Q 4113 6300 4200 5678 
L 3544 5613 
Q 3469 6188 3219 6188 
Q 2906 6188 2869 5413 
L 2581 -597 
Q 2547 -1334 2187 -1628 
Q 1828 -1922 1497 -1922 
Q 1163 -1922 883 -1647 
Q 603 -1372 516 -750 
L 1172 -684 
Q 1247 -1259 1497 -1259 
Q 1809 -1259 1847 -488 
L 2134 5525 
z
" transform="scale(0.015625)"/>
       <path id="DejaVuSans-2202" d="M 1366 -91 
Q 925 -91 638 175 
Q 297 491 297 1063 
Q 297 1656 597 2119 
Q 906 2594 1463 2594 
Q 1828 2594 2116 2366 
Q 2284 2231 2400 2006 
Q 2441 2259 2441 2547 
Q 2441 2969 2341 3213 
Q 2119 3753 1531 3753 
Q 1309 3753 966 3616 
L 966 4141 
Q 1328 4238 1653 4238 
Q 2491 4238 2847 3469 
Q 3013 3106 3013 2566 
Q 3013 2213 2934 1803 
Q 2738 778 2228 291 
Q 1828 -91 1366 -91 
z
M 831 969 
Q 831 656 969 488 
Q 1116 309 1341 309 
Q 1541 309 1700 450 
Q 1925 644 2091 959 
Q 2228 1219 2297 1497 
Q 2019 2169 1538 2169 
Q 1125 2169 944 1625 
Q 831 1288 831 969 
z
" transform="scale(0.015625)"/>
       <path id="DejaVuSans-3a9" d="M 4647 556 
L 4647 0 
L 2772 0 
L 2772 556 
Q 3325 859 3634 1378 
Q 3944 1897 3944 2528 
Q 3944 3278 3531 3731 
Q 3119 4184 2444 4184 
Q 1769 4184 1355 3729 
Q 941 3275 941 2528 
Q 941 1897 1250 1378 
Q 1563 859 2119 556 
L 2119 0 
L 244 0 
L 244 556 
L 1241 556 
Q 747 991 519 1456 
Q 294 1922 294 2497 
Q 294 3491 894 4106 
Q 1491 4722 2444 4722 
Q 3391 4722 3994 4106 
Q 4594 3494 4594 2528 
Q 4594 1922 4372 1459 
Q 4150 997 3647 556 
L 4647 556 
z
" transform="scale(0.015625)"/>
       <path id="DejaVuSans-28" d="M 1984 4856 
Q 1566 4138 1362 3434 
Q 1159 2731 1159 2009 
Q 1159 1288 1364 580 
Q 1569 -128 1984 -844 
L 1484 -844 
Q 1016 -109 783 600 
Q 550 1309 550 2009 
Q 550 2706 781 3412 
Q 1013 4119 1484 4856 
L 1984 4856 
z
" transform="scale(0.015625)"/>
       <path id="DejaVuSans-Oblique-3bb" d="M 2350 4316 
L 3125 0 
L 2516 0 
L 2038 2588 
L 328 0 
L -281 0 
L 1903 3356 
L 1794 3975 
Q 1725 4369 1391 4369 
L 1091 4369 
L 1184 4863 
L 1550 4856 
Q 2253 4847 2350 4316 
z
" transform="scale(0.015625)"/>
       <path id="DejaVuSans-Oblique-75" d="M 428 1388 
L 838 3500 
L 1416 3500 
L 1006 1409 
Q 975 1256 961 1147 
Q 947 1038 947 966 
Q 947 700 1109 554 
Q 1272 409 1569 409 
Q 2031 409 2368 721 
Q 2706 1034 2809 1563 
L 3194 3500 
L 3769 3500 
L 3091 0 
L 2516 0 
L 2631 550 
Q 2388 244 2052 76 
Q 1716 -91 1338 -91 
Q 878 -91 622 161 
Q 366 413 366 863 
Q 366 956 381 1097 
Q 397 1238 428 1388 
z
" transform="scale(0.015625)"/>
       <path id="DejaVuSans-Oblique-6e" d="M 3566 2113 
L 3156 0 
L 2578 0 
L 2988 2091 
Q 3016 2238 3031 2350 
Q 3047 2463 3047 2528 
Q 3047 2791 2881 2937 
Q 2716 3084 2419 3084 
Q 1956 3084 1622 2776 
Q 1288 2469 1184 1941 
L 800 0 
L 225 0 
L 903 3500 
L 1478 3500 
L 1363 2950 
Q 1603 3253 1940 3418 
Q 2278 3584 2650 3584 
Q 3113 3584 3367 3334 
Q 3622 3084 3622 2631 
Q 3622 2519 3608 2391 
Q 3594 2263 3566 2113 
z
" transform="scale(0.015625)"/>
       <path id="DejaVuSans-Oblique-3b1" d="M 2619 1628 
L 2622 2350 
Q 2625 3088 2069 3091 
Q 1653 3094 1394 2747 
Q 1069 2319 959 1747 
Q 825 1059 994 731 
Q 1169 397 1547 397 
Q 1966 397 2319 1063 
L 2619 1628 
z
M 2166 3578 
Q 3141 3594 3128 2584 
Q 3128 2584 3616 3500 
L 4128 3500 
L 3119 1603 
L 3109 919 
Q 3109 766 3194 638 
Q 3291 488 3391 488 
L 3669 488 
L 3575 0 
L 3228 0 
Q 2934 0 2722 263 
Q 2622 394 2619 669 
Q 2416 334 2066 50 
Q 1900 -81 1453 -78 
Q 722 -72 456 397 
Q 184 884 353 1747 
Q 534 2675 1009 3097 
Q 1544 3569 2166 3578 
z
" transform="scale(0.015625)"/>
       <path id="DejaVuSans-Oblique-70" d="M 3175 2156 
Q 3175 2616 2975 2859 
Q 2775 3103 2400 3103 
Q 2144 3103 1911 2972 
Q 1678 2841 1497 2591 
Q 1319 2344 1212 1994 
Q 1106 1644 1106 1300 
Q 1106 863 1306 627 
Q 1506 391 1875 391 
Q 2147 391 2380 519 
Q 2613 647 2778 891 
Q 2956 1147 3065 1494 
Q 3175 1841 3175 2156 
z
M 1394 2969 
Q 1625 3272 1939 3428 
Q 2253 3584 2638 3584 
Q 3175 3584 3472 3232 
Q 3769 2881 3769 2247 
Q 3769 1728 3584 1258 
Q 3400 788 3053 416 
Q 2822 169 2531 39 
Q 2241 -91 1919 -91 
Q 1547 -91 1294 64 
Q 1041 219 916 525 
L 556 -1331 
L -19 -1331 
L 922 3500 
L 1497 3500 
L 1394 2969 
z
" transform="scale(0.015625)"/>
       <path id="DejaVuSans-29" d="M 513 4856 
L 1013 4856 
Q 1481 4119 1714 3412 
Q 1947 2706 1947 2009 
Q 1947 1309 1714 600 
Q 1481 -109 1013 -844 
L 513 -844 
Q 928 -128 1133 580 
Q 1338 1288 1338 2009 
Q 1338 2731 1133 3434 
Q 928 4138 513 4856 
z
" transform="scale(0.015625)"/>
       <path id="DejaVuSans-Oblique-76" d="M 459 3500 
L 1069 3500 
L 1581 525 
L 3256 3500 
L 3866 3500 
L 1875 0 
L 1100 0 
L 459 3500 
z
" transform="scale(0.015625)"/>
       <path id="DejaVuSans-64" d="M 2906 2969 
L 2906 4863 
L 3481 4863 
L 3481 0 
L 2906 0 
L 2906 525 
Q 2725 213 2448 61 
Q 2172 -91 1784 -91 
Q 1150 -91 751 415 
Q 353 922 353 1747 
Q 353 2572 751 3078 
Q 1150 3584 1784 3584 
Q 2172 3584 2448 3432 
Q 2725 3281 2906 2969 
z
M 947 1747 
Q 947 1113 1208 752 
Q 1469 391 1925 391 
Q 2381 391 2643 752 
Q 2906 1113 2906 1747 
Q 2906 2381 2643 2742 
Q 2381 3103 1925 3103 
Q 1469 3103 1208 2742 
Q 947 2381 947 1747 
z
" transform="scale(0.015625)"/>
       <path id="DejaVuSans-Oblique-73" d="M 3200 3397 
L 3091 2853 
Q 2863 2978 2609 3040 
Q 2356 3103 2088 3103 
Q 1634 3103 1373 2948 
Q 1113 2794 1113 2528 
Q 1113 2219 1719 2053 
Q 1766 2041 1788 2034 
L 1972 1978 
Q 2547 1819 2739 1644 
Q 2931 1469 2931 1166 
Q 2931 609 2489 259 
Q 2047 -91 1331 -91 
Q 1053 -91 747 -37 
Q 441 16 72 128 
L 184 722 
Q 500 559 806 475 
Q 1113 391 1394 391 
Q 1816 391 2080 572 
Q 2344 753 2344 1031 
Q 2344 1331 1650 1516 
L 1591 1531 
L 1394 1581 
Q 956 1697 753 1886 
Q 550 2075 550 2369 
Q 550 2928 970 3256 
Q 1391 3584 2113 3584 
Q 2397 3584 2667 3537 
Q 2938 3491 3200 3397 
z
" transform="scale(0.015625)"/>
      </defs>
      <use xlink:href="#DejaVuSansDisplay-222b" transform="translate(0 0.96875)"/>
      <use xlink:href="#DejaVuSans-2202" transform="translate(71.759766 -50.9375) scale(0.7)"/>
      <use xlink:href="#DejaVuSans-3a9" transform="translate(107.956055 -50.9375) scale(0.7)"/>
      <use xlink:href="#DejaVuSans-28" transform="translate(161.447266 0.96875)"/>
      <use xlink:href="#DejaVuSans-32" transform="translate(200.460938 0.96875)"/>
      <use xlink:href="#DejaVuSans-Oblique-3bb" transform="translate(264.083984 0.96875)"/>
      <use xlink:href="#DejaVuSans-Oblique-75" transform="translate(323.263672 0.96875)"/>
      <use xlink:href="#DejaVuSans-Oblique-6e" transform="translate(386.642578 -15.4375) scale(0.7)"/>
      <use xlink:href="#DejaVuSans-2212" transform="translate(453.224609 0.96875)"/>
      <use xlink:href="#DejaVuSans-Oblique-3b1" transform="translate(556.496094 0.96875)"/>
      <use xlink:href="#DejaVuSans-Oblique-70" transform="translate(622.414062 0.96875)"/>
      <use xlink:href="#DejaVuSans-Oblique-6e" transform="translate(685.890625 -15.4375) scale(0.7)"/>
      <use xlink:href="#DejaVuSans-29" transform="translate(732.990234 0.96875)"/>
      <use xlink:href="#DejaVuSans-Oblique-76" transform="translate(788.239583 0.96875)"/>
      <use xlink:href="#DejaVuSans-Oblique-6e" transform="translate(847.41927 -15.4375) scale(0.7)"/>
      <use xlink:href="#DejaVuSans-64" transform="translate(921.578015 0.96875)"/>
      <use xlink:href="#DejaVuSans-Oblique-73" transform="translate(985.054578 0.96875)"/>
     </g>
    </g>
   </g>
   <g id="line2d_18">
    <path d="M 83.152909 291.06 
L 92.111324 43.845736 
L 101.069739 40.022594 
L 110.028154 39.46 
L 118.986569 43.910014 
L 127.944984 39.46 
L 136.903399 42.167243 
L 145.861814 39.46 
L 154.820228 40.800045 
L 163.778643 39.46 
L 172.737058 40.803895 
L 181.695473 39.46 
L 190.653888 40.685082 
L 199.612303 39.46 
L 208.570718 40.949259 
L 217.529133 39.46 
L 226.487548 40.212869 
L 235.445963 39.46 
L 244.404378 41.239585 
L 253.362793 39.46 
L 262.321207 40.474203 
L 271.279622 39.46 
L 280.238037 40.588795 
L 289.196452 39.46 
L 298.154867 40.779073 
L 307.113282 39.46 
L 316.071697 40.656376 
L 325.030112 39.46 
L 333.988527 40.943577 
L 342.946942 39.46 
L 351.905357 40.563785 
L 360.863772 39.46 
L 369.822186 41.217783 
L 378.780601 39.46 
L 387.739016 39.916317 
L 396.697431 39.46 
L 405.655846 41.637961 
L 414.614261 39.46 
L 423.572676 40.047316 
L 432.531091 39.46 
" clip-path="url(#p9c00841a87)" style="fill: none; stroke: #1f77b4; stroke-width: 1.5; stroke-linecap: square"/>
    <defs>
     <path id="m6f6997926b" d="M -3 3 
L 3 -3 
M -3 -3 
L 3 3 
" style="stroke: #1f77b4"/>
    </defs>
    <g clip-path="url(#p9c00841a87)">
     <use xlink:href="#m6f6997926b" x="83.152909" y="291.06" style="fill: #1f77b4; stroke: #1f77b4"/>
     <use xlink:href="#m6f6997926b" x="92.111324" y="43.845736" style="fill: #1f77b4; stroke: #1f77b4"/>
     <use xlink:href="#m6f6997926b" x="101.069739" y="40.022594" style="fill: #1f77b4; stroke: #1f77b4"/>
     <use xlink:href="#m6f6997926b" x="110.028154" y="39.46" style="fill: #1f77b4; stroke: #1f77b4"/>
     <use xlink:href="#m6f6997926b" x="118.986569" y="43.910014" style="fill: #1f77b4; stroke: #1f77b4"/>
     <use xlink:href="#m6f6997926b" x="127.944984" y="39.46" style="fill: #1f77b4; stroke: #1f77b4"/>
     <use xlink:href="#m6f6997926b" x="136.903399" y="42.167243" style="fill: #1f77b4; stroke: #1f77b4"/>
     <use xlink:href="#m6f6997926b" x="145.861814" y="39.46" style="fill: #1f77b4; stroke: #1f77b4"/>
     <use xlink:href="#m6f6997926b" x="154.820228" y="40.800045" style="fill: #1f77b4; stroke: #1f77b4"/>
     <use xlink:href="#m6f6997926b" x="163.778643" y="39.46" style="fill: #1f77b4; stroke: #1f77b4"/>
     <use xlink:href="#m6f6997926b" x="172.737058" y="40.803895" style="fill: #1f77b4; stroke: #1f77b4"/>
     <use xlink:href="#m6f6997926b" x="181.695473" y="39.46" style="fill: #1f77b4; stroke: #1f77b4"/>
     <use xlink:href="#m6f6997926b" x="190.653888" y="40.685082" style="fill: #1f77b4; stroke: #1f77b4"/>
     <use xlink:href="#m6f6997926b" x="199.612303" y="39.46" style="fill: #1f77b4; stroke: #1f77b4"/>
     <use xlink:href="#m6f6997926b" x="208.570718" y="40.949259" style="fill: #1f77b4; stroke: #1f77b4"/>
     <use xlink:href="#m6f6997926b" x="217.529133" y="39.46" style="fill: #1f77b4; stroke: #1f77b4"/>
     <use xlink:href="#m6f6997926b" x="226.487548" y="40.212869" style="fill: #1f77b4; stroke: #1f77b4"/>
     <use xlink:href="#m6f6997926b" x="235.445963" y="39.46" style="fill: #1f77b4; stroke: #1f77b4"/>
     <use xlink:href="#m6f6997926b" x="244.404378" y="41.239585" style="fill: #1f77b4; stroke: #1f77b4"/>
     <use xlink:href="#m6f6997926b" x="253.362793" y="39.46" style="fill: #1f77b4; stroke: #1f77b4"/>
     <use xlink:href="#m6f6997926b" x="262.321207" y="40.474203" style="fill: #1f77b4; stroke: #1f77b4"/>
     <use xlink:href="#m6f6997926b" x="271.279622" y="39.46" style="fill: #1f77b4; stroke: #1f77b4"/>
     <use xlink:href="#m6f6997926b" x="280.238037" y="40.588795" style="fill: #1f77b4; stroke: #1f77b4"/>
     <use xlink:href="#m6f6997926b" x="289.196452" y="39.46" style="fill: #1f77b4; stroke: #1f77b4"/>
     <use xlink:href="#m6f6997926b" x="298.154867" y="40.779073" style="fill: #1f77b4; stroke: #1f77b4"/>
     <use xlink:href="#m6f6997926b" x="307.113282" y="39.46" style="fill: #1f77b4; stroke: #1f77b4"/>
     <use xlink:href="#m6f6997926b" x="316.071697" y="40.656376" style="fill: #1f77b4; stroke: #1f77b4"/>
     <use xlink:href="#m6f6997926b" x="325.030112" y="39.46" style="fill: #1f77b4; stroke: #1f77b4"/>
     <use xlink:href="#m6f6997926b" x="333.988527" y="40.943577" style="fill: #1f77b4; stroke: #1f77b4"/>
     <use xlink:href="#m6f6997926b" x="342.946942" y="39.46" style="fill: #1f77b4; stroke: #1f77b4"/>
     <use xlink:href="#m6f6997926b" x="351.905357" y="40.563785" style="fill: #1f77b4; stroke: #1f77b4"/>
     <use xlink:href="#m6f6997926b" x="360.863772" y="39.46" style="fill: #1f77b4; stroke: #1f77b4"/>
     <use xlink:href="#m6f6997926b" x="369.822186" y="41.217783" style="fill: #1f77b4; stroke: #1f77b4"/>
     <use xlink:href="#m6f6997926b" x="378.780601" y="39.46" style="fill: #1f77b4; stroke: #1f77b4"/>
     <use xlink:href="#m6f6997926b" x="387.739016" y="39.916317" style="fill: #1f77b4; stroke: #1f77b4"/>
     <use xlink:href="#m6f6997926b" x="396.697431" y="39.46" style="fill: #1f77b4; stroke: #1f77b4"/>
     <use xlink:href="#m6f6997926b" x="405.655846" y="41.637961" style="fill: #1f77b4; stroke: #1f77b4"/>
     <use xlink:href="#m6f6997926b" x="414.614261" y="39.46" style="fill: #1f77b4; stroke: #1f77b4"/>
     <use xlink:href="#m6f6997926b" x="423.572676" y="40.047316" style="fill: #1f77b4; stroke: #1f77b4"/>
     <use xlink:href="#m6f6997926b" x="432.531091" y="39.46" style="fill: #1f77b4; stroke: #1f77b4"/>
    </g>
   </g>
   <g id="line2d_19">
    <path d="M 83.152909 95.685393 
L 92.111324 39.460684 
L 101.069739 39.460006 
L 110.028154 39.46 
L 118.986569 39.46 
L 127.944984 39.46 
L 136.903399 39.46 
L 145.861814 39.46 
L 154.820228 39.46 
L 163.778643 39.46 
L 172.737058 39.46 
L 181.695473 39.46 
L 190.653888 39.46 
L 199.612303 39.46 
L 208.570718 39.46 
L 217.529133 39.46 
L 226.487548 39.46 
L 235.445963 39.46 
L 244.404378 39.46 
L 253.362793 39.46 
L 262.321207 39.46 
L 271.279622 39.46 
L 280.238037 39.46 
L 289.196452 39.46 
L 298.154867 39.46 
L 307.113282 39.46 
L 316.071697 39.46 
L 325.030112 39.46 
L 333.988527 39.46 
L 342.946942 39.46 
L 351.905357 39.46 
L 360.863772 39.46 
L 369.822186 39.46 
L 378.780601 39.46 
L 387.739016 39.46 
L 396.697431 39.46 
L 405.655846 39.46 
L 414.614261 39.46 
L 423.572676 39.46 
L 432.531091 39.46 
" clip-path="url(#p9c00841a87)" style="fill: none; stroke: #ff7f0e; stroke-width: 1.5; stroke-linecap: square"/>
    <defs>
     <path id="mf2b1dfa321" d="M -3 3 
L 3 -3 
M -3 -3 
L 3 3 
" style="stroke: #ff7f0e"/>
    </defs>
    <g clip-path="url(#p9c00841a87)">
     <use xlink:href="#mf2b1dfa321" x="83.152909" y="95.685393" style="fill: #ff7f0e; stroke: #ff7f0e"/>
     <use xlink:href="#mf2b1dfa321" x="92.111324" y="39.460684" style="fill: #ff7f0e; stroke: #ff7f0e"/>
     <use xlink:href="#mf2b1dfa321" x="101.069739" y="39.460006" style="fill: #ff7f0e; stroke: #ff7f0e"/>
     <use xlink:href="#mf2b1dfa321" x="110.028154" y="39.46" style="fill: #ff7f0e; stroke: #ff7f0e"/>
     <use xlink:href="#mf2b1dfa321" x="118.986569" y="39.46" style="fill: #ff7f0e; stroke: #ff7f0e"/>
     <use xlink:href="#mf2b1dfa321" x="127.944984" y="39.46" style="fill: #ff7f0e; stroke: #ff7f0e"/>
     <use xlink:href="#mf2b1dfa321" x="136.903399" y="39.46" style="fill: #ff7f0e; stroke: #ff7f0e"/>
     <use xlink:href="#mf2b1dfa321" x="145.861814" y="39.46" style="fill: #ff7f0e; stroke: #ff7f0e"/>
     <use xlink:href="#mf2b1dfa321" x="154.820228" y="39.46" style="fill: #ff7f0e; stroke: #ff7f0e"/>
     <use xlink:href="#mf2b1dfa321" x="163.778643" y="39.46" style="fill: #ff7f0e; stroke: #ff7f0e"/>
     <use xlink:href="#mf2b1dfa321" x="172.737058" y="39.46" style="fill: #ff7f0e; stroke: #ff7f0e"/>
     <use xlink:href="#mf2b1dfa321" x="181.695473" y="39.46" style="fill: #ff7f0e; stroke: #ff7f0e"/>
     <use xlink:href="#mf2b1dfa321" x="190.653888" y="39.46" style="fill: #ff7f0e; stroke: #ff7f0e"/>
     <use xlink:href="#mf2b1dfa321" x="199.612303" y="39.46" style="fill: #ff7f0e; stroke: #ff7f0e"/>
     <use xlink:href="#mf2b1dfa321" x="208.570718" y="39.46" style="fill: #ff7f0e; stroke: #ff7f0e"/>
     <use xlink:href="#mf2b1dfa321" x="217.529133" y="39.46" style="fill: #ff7f0e; stroke: #ff7f0e"/>
     <use xlink:href="#mf2b1dfa321" x="226.487548" y="39.46" style="fill: #ff7f0e; stroke: #ff7f0e"/>
     <use xlink:href="#mf2b1dfa321" x="235.445963" y="39.46" style="fill: #ff7f0e; stroke: #ff7f0e"/>
     <use xlink:href="#mf2b1dfa321" x="244.404378" y="39.46" style="fill: #ff7f0e; stroke: #ff7f0e"/>
     <use xlink:href="#mf2b1dfa321" x="253.362793" y="39.46" style="fill: #ff7f0e; stroke: #ff7f0e"/>
     <use xlink:href="#mf2b1dfa321" x="262.321207" y="39.46" style="fill: #ff7f0e; stroke: #ff7f0e"/>
     <use xlink:href="#mf2b1dfa321" x="271.279622" y="39.46" style="fill: #ff7f0e; stroke: #ff7f0e"/>
     <use xlink:href="#mf2b1dfa321" x="280.238037" y="39.46" style="fill: #ff7f0e; stroke: #ff7f0e"/>
     <use xlink:href="#mf2b1dfa321" x="289.196452" y="39.46" style="fill: #ff7f0e; stroke: #ff7f0e"/>
     <use xlink:href="#mf2b1dfa321" x="298.154867" y="39.46" style="fill: #ff7f0e; stroke: #ff7f0e"/>
     <use xlink:href="#mf2b1dfa321" x="307.113282" y="39.46" style="fill: #ff7f0e; stroke: #ff7f0e"/>
     <use xlink:href="#mf2b1dfa321" x="316.071697" y="39.46" style="fill: #ff7f0e; stroke: #ff7f0e"/>
     <use xlink:href="#mf2b1dfa321" x="325.030112" y="39.46" style="fill: #ff7f0e; stroke: #ff7f0e"/>
     <use xlink:href="#mf2b1dfa321" x="333.988527" y="39.46" style="fill: #ff7f0e; stroke: #ff7f0e"/>
     <use xlink:href="#mf2b1dfa321" x="342.946942" y="39.46" style="fill: #ff7f0e; stroke: #ff7f0e"/>
     <use xlink:href="#mf2b1dfa321" x="351.905357" y="39.46" style="fill: #ff7f0e; stroke: #ff7f0e"/>
     <use xlink:href="#mf2b1dfa321" x="360.863772" y="39.46" style="fill: #ff7f0e; stroke: #ff7f0e"/>
     <use xlink:href="#mf2b1dfa321" x="369.822186" y="39.46" style="fill: #ff7f0e; stroke: #ff7f0e"/>
     <use xlink:href="#mf2b1dfa321" x="378.780601" y="39.46" style="fill: #ff7f0e; stroke: #ff7f0e"/>
     <use xlink:href="#mf2b1dfa321" x="387.739016" y="39.46" style="fill: #ff7f0e; stroke: #ff7f0e"/>
     <use xlink:href="#mf2b1dfa321" x="396.697431" y="39.46" style="fill: #ff7f0e; stroke: #ff7f0e"/>
     <use xlink:href="#mf2b1dfa321" x="405.655846" y="39.46" style="fill: #ff7f0e; stroke: #ff7f0e"/>
     <use xlink:href="#mf2b1dfa321" x="414.614261" y="39.46" style="fill: #ff7f0e; stroke: #ff7f0e"/>
     <use xlink:href="#mf2b1dfa321" x="423.572676" y="39.46" style="fill: #ff7f0e; stroke: #ff7f0e"/>
     <use xlink:href="#mf2b1dfa321" x="432.531091" y="39.46" style="fill: #ff7f0e; stroke: #ff7f0e"/>
    </g>
   </g>
   <g id="patch_3">
    <path d="M 65.684 303.64 
L 65.684 26.88 
" style="fill: none; stroke: #000000; stroke-width: 0.8; stroke-linejoin: miter; stroke-linecap: square"/>
   </g>
   <g id="patch_4">
    <path d="M 450 303.64 
L 450 26.88 
" style="fill: none; stroke: #000000; stroke-width: 0.8; stroke-linejoin: miter; stroke-linecap: square"/>
   </g>
   <g id="patch_5">
    <path d="M 65.684 303.64 
L 450 303.64 
" style="fill: none; stroke: #000000; stroke-width: 0.8; stroke-linejoin: miter; stroke-linecap: square"/>
   </g>
   <g id="patch_6">
    <path d="M 65.684 26.88 
L 450 26.88 
" style="fill: none; stroke: #000000; stroke-width: 0.8; stroke-linejoin: miter; stroke-linecap: square"/>
   </g>
   <g id="text_20">
    <!-- $\mathrm{d}J(u_n)(v_n)$ -->
    <g transform="translate(229.882 20.88) scale(0.12 -0.12)">
     <defs>
      <path id="DejaVuSans-Oblique-4a" d="M 1069 4666 
L 1703 4666 
L 856 325 
Q 691 -522 298 -901 
Q -94 -1281 -800 -1281 
L -1050 -1281 
L -947 -750 
L -750 -750 
Q -328 -750 -109 -509 
Q 109 -269 225 325 
L 1069 4666 
z
" transform="scale(0.015625)"/>
     </defs>
     <use xlink:href="#DejaVuSans-64" transform="translate(0 0.015625)"/>
     <use xlink:href="#DejaVuSans-Oblique-4a" transform="translate(63.476562 0.015625)"/>
     <use xlink:href="#DejaVuSans-28" transform="translate(92.96875 0.015625)"/>
     <use xlink:href="#DejaVuSans-Oblique-75" transform="translate(131.982422 0.015625)"/>
     <use xlink:href="#DejaVuSans-Oblique-6e" transform="translate(195.361328 -16.390625) scale(0.7)"/>
     <use xlink:href="#DejaVuSans-29" transform="translate(242.460938 0.015625)"/>
     <use xlink:href="#DejaVuSans-28" transform="translate(281.474609 0.015625)"/>
     <use xlink:href="#DejaVuSans-Oblique-76" transform="translate(320.488281 0.015625)"/>
     <use xlink:href="#DejaVuSans-Oblique-6e" transform="translate(379.667969 -16.390625) scale(0.7)"/>
     <use xlink:href="#DejaVuSans-29" transform="translate(426.767578 0.015625)"/>
    </g>
   </g>
   <g id="legend_1">
    <g id="patch_7">
     <path d="M 304.075 298.64 
L 443 298.64 
Q 445 298.64 445 296.64 
L 445 268.28375 
Q 445 266.28375 443 266.28375 
L 304.075 266.28375 
Q 302.075 266.28375 302.075 268.28375 
L 302.075 296.64 
Q 302.075 298.64 304.075 298.64 
z
" style="fill: #ffffff; opacity: 0.8; stroke: #cccccc; stroke-linejoin: miter"/>
    </g>
    <g id="line2d_20">
     <path d="M 306.075 274.382187 
L 316.075 274.382187 
L 326.075 274.382187 
" style="fill: none; stroke: #1f77b4; stroke-width: 1.5; stroke-linecap: square"/>
     <g>
      <use xlink:href="#m6f6997926b" x="316.075" y="274.382187" style="fill: #1f77b4; stroke: #1f77b4"/>
     </g>
    </g>
    <g id="text_21">
     <!-- Conditioned Gradient -->
     <g transform="translate(334.075 277.882187) scale(0.1 -0.1)">
      <defs>
       <path id="DejaVuSans-43" d="M 4122 4306 
L 4122 3641 
Q 3803 3938 3442 4084 
Q 3081 4231 2675 4231 
Q 1875 4231 1450 3742 
Q 1025 3253 1025 2328 
Q 1025 1406 1450 917 
Q 1875 428 2675 428 
Q 3081 428 3442 575 
Q 3803 722 4122 1019 
L 4122 359 
Q 3791 134 3420 21 
Q 3050 -91 2638 -91 
Q 1578 -91 968 557 
Q 359 1206 359 2328 
Q 359 3453 968 4101 
Q 1578 4750 2638 4750 
Q 3056 4750 3426 4639 
Q 3797 4528 4122 4306 
z
" transform="scale(0.015625)"/>
       <path id="DejaVuSans-47" d="M 3809 666 
L 3809 1919 
L 2778 1919 
L 2778 2438 
L 4434 2438 
L 4434 434 
Q 4069 175 3628 42 
Q 3188 -91 2688 -91 
Q 1594 -91 976 548 
Q 359 1188 359 2328 
Q 359 3472 976 4111 
Q 1594 4750 2688 4750 
Q 3144 4750 3555 4637 
Q 3966 4525 4313 4306 
L 4313 3634 
Q 3963 3931 3569 4081 
Q 3175 4231 2741 4231 
Q 1884 4231 1454 3753 
Q 1025 3275 1025 2328 
Q 1025 1384 1454 906 
Q 1884 428 2741 428 
Q 3075 428 3337 486 
Q 3600 544 3809 666 
z
" transform="scale(0.015625)"/>
      </defs>
      <use xlink:href="#DejaVuSans-43"/>
      <use xlink:href="#DejaVuSans-6f" x="69.824219"/>
      <use xlink:href="#DejaVuSans-6e" x="131.005859"/>
      <use xlink:href="#DejaVuSans-64" x="194.384766"/>
      <use xlink:href="#DejaVuSans-69" x="257.861328"/>
      <use xlink:href="#DejaVuSans-74" x="285.644531"/>
      <use xlink:href="#DejaVuSans-69" x="324.853516"/>
      <use xlink:href="#DejaVuSans-6f" x="352.636719"/>
      <use xlink:href="#DejaVuSans-6e" x="413.818359"/>
      <use xlink:href="#DejaVuSans-65" x="477.197266"/>
      <use xlink:href="#DejaVuSans-64" x="538.720703"/>
      <use xlink:href="#DejaVuSans-20" x="602.197266"/>
      <use xlink:href="#DejaVuSans-47" x="633.984375"/>
      <use xlink:href="#DejaVuSans-72" x="711.474609"/>
      <use xlink:href="#DejaVuSans-61" x="752.587891"/>
      <use xlink:href="#DejaVuSans-64" x="813.867188"/>
      <use xlink:href="#DejaVuSans-69" x="877.34375"/>
      <use xlink:href="#DejaVuSans-65" x="905.126953"/>
      <use xlink:href="#DejaVuSans-6e" x="966.650391"/>
      <use xlink:href="#DejaVuSans-74" x="1030.029297"/>
     </g>
    </g>
    <g id="line2d_21">
     <path d="M 306.075 289.060312 
L 316.075 289.060312 
L 326.075 289.060312 
" style="fill: none; stroke: #ff7f0e; stroke-width: 1.5; stroke-linecap: square"/>
     <g>
      <use xlink:href="#mf2b1dfa321" x="316.075" y="289.060312" style="fill: #ff7f0e; stroke: #ff7f0e"/>
     </g>
    </g>
    <g id="text_22">
     <!-- Projected Gradient -->
     <g transform="translate(334.075 292.560312) scale(0.1 -0.1)">
      <defs>
       <path id="DejaVuSans-50" d="M 1259 4147 
L 1259 2394 
L 2053 2394 
Q 2494 2394 2734 2622 
Q 2975 2850 2975 3272 
Q 2975 3691 2734 3919 
Q 2494 4147 2053 4147 
L 1259 4147 
z
M 628 4666 
L 2053 4666 
Q 2838 4666 3239 4311 
Q 3641 3956 3641 3272 
Q 3641 2581 3239 2228 
Q 2838 1875 2053 1875 
L 1259 1875 
L 1259 0 
L 628 0 
L 628 4666 
z
" transform="scale(0.015625)"/>
       <path id="DejaVuSans-6a" d="M 603 3500 
L 1178 3500 
L 1178 -63 
Q 1178 -731 923 -1031 
Q 669 -1331 103 -1331 
L -116 -1331 
L -116 -844 
L 38 -844 
Q 366 -844 484 -692 
Q 603 -541 603 -63 
L 603 3500 
z
M 603 4863 
L 1178 4863 
L 1178 4134 
L 603 4134 
L 603 4863 
z
" transform="scale(0.015625)"/>
       <path id="DejaVuSans-63" d="M 3122 3366 
L 3122 2828 
Q 2878 2963 2633 3030 
Q 2388 3097 2138 3097 
Q 1578 3097 1268 2742 
Q 959 2388 959 1747 
Q 959 1106 1268 751 
Q 1578 397 2138 397 
Q 2388 397 2633 464 
Q 2878 531 3122 666 
L 3122 134 
Q 2881 22 2623 -34 
Q 2366 -91 2075 -91 
Q 1284 -91 818 406 
Q 353 903 353 1747 
Q 353 2603 823 3093 
Q 1294 3584 2113 3584 
Q 2378 3584 2631 3529 
Q 2884 3475 3122 3366 
z
" transform="scale(0.015625)"/>
      </defs>
      <use xlink:href="#DejaVuSans-50"/>
      <use xlink:href="#DejaVuSans-72" x="58.552734"/>
      <use xlink:href="#DejaVuSans-6f" x="97.416016"/>
      <use xlink:href="#DejaVuSans-6a" x="158.597656"/>
      <use xlink:href="#DejaVuSans-65" x="186.380859"/>
      <use xlink:href="#DejaVuSans-63" x="247.904297"/>
      <use xlink:href="#DejaVuSans-74" x="302.884766"/>
      <use xlink:href="#DejaVuSans-65" x="342.09375"/>
      <use xlink:href="#DejaVuSans-64" x="403.617188"/>
      <use xlink:href="#DejaVuSans-20" x="467.09375"/>
      <use xlink:href="#DejaVuSans-47" x="498.880859"/>
      <use xlink:href="#DejaVuSans-72" x="576.371094"/>
      <use xlink:href="#DejaVuSans-61" x="617.484375"/>
      <use xlink:href="#DejaVuSans-64" x="678.763672"/>
      <use xlink:href="#DejaVuSans-69" x="742.240234"/>
      <use xlink:href="#DejaVuSans-65" x="770.023438"/>
      <use xlink:href="#DejaVuSans-6e" x="831.546875"/>
      <use xlink:href="#DejaVuSans-74" x="894.925781"/>
     </g>
    </g>
   </g>
  </g>
 </g>
 <defs>
  <clipPath id="p9c00841a87">
   <rect x="65.684" y="26.88" width="384.316" height="276.76"/>
  </clipPath>
 </defs>
</svg>
